<?xml version="1.0" standalone="no"?>
<!DOCTYPE svg PUBLIC "-//W3C//DTD SVG 20010904//EN"
 "http://www.w3.org/TR/2001/REC-SVG-20010904/DTD/svg10.dtd">
<svg version="1.0" xmlns="http://www.w3.org/2000/svg"
 width="1667.000000pt" height="1667.000000pt" viewBox="0 0 1667.000000 1667.000000"
 preserveAspectRatio="xMidYMid meet">

<g transform="translate(0.000000,1667.000000) scale(0.100000,-0.100000)"
fill="#000000" stroke="none">
<path d="M0 8335 l0 -8335 8335 0 8335 0 0 8335 0 8335 -8335 0 -8335 0 0
-8335z m4894 3379 l2098 -319 -338 -331 c-187 -183 -337 -334 -334 -336 3 -3
495 -193 1093 -423 1027 -395 1087 -420 1070 -436 -10 -9 -543 -402 -1184
-873 l-1167 -856 -6 -223 c-4 -122 -20 -971 -36 -1887 -17 -916 -31 -1689 -33
-1717 -2 -52 -15 -27 -1042 2037 -571 1150 -1042 2090 -1045 2090 -3 0 -166
-161 -362 -357 -197 -197 -358 -352 -358 -344 0 19 -508 4229 -515 4270 -6 34
-6 34 27 29 18 -3 977 -149 2132 -324z m9566 304 c0 -21 -510 -4251 -516
-4277 -5 -22 -43 13 -364 334 l-358 358 -657 -1319 c-361 -725 -828 -1665
-1038 -2088 l-382 -770 -7 115 c-4 63 -22 931 -39 1929 -28 1631 -33 1817 -48
1832 -9 9 -540 402 -1181 872 -641 471 -1166 860 -1168 864 -1 5 488 197 1088
428 599 230 1089 422 1087 425 -1 4 -152 152 -334 329 -183 178 -333 326 -333
329 0 5 4180 646 4238 650 6 1 12 -5 12 -11z m-4872 -3181 c513 -374 931 -681
929 -683 -2 -2 -427 148 -945 333 l-942 337 0 353 c0 281 3 353 13 347 6 -4
432 -314 945 -687z m-1090 -1139 l2 -298 -300 0 -300 0 0 300 0 300 298 -2
297 -3 3 -297z m0 -785 l-3 -298 -297 -3 -298 -2 0 300 0 300 300 0 300 0 -2
-297z m1491 -786 c567 -61 595 -65 613 -87 10 -12 18 -31 18 -41 0 -11 -29
-78 -65 -149 -36 -71 -65 -131 -65 -134 0 -2 61 -79 135 -172 l135 -169 0
-354 0 -354 -143 -146 -144 -146 -11 -62 c-31 -177 -167 -330 -340 -383 -86
-27 -217 -27 -303 0 -173 53 -304 200 -344 383 l-5 27 -872 -2 -871 -3 -12
-50 c-29 -128 -136 -263 -255 -322 -82 -40 -135 -52 -230 -53 -246 -1 -440
157 -494 403 l-6 27 -125 0 c-180 0 -167 -25 -163 313 3 270 4 272 31 337 33
80 102 169 165 214 28 21 135 69 272 122 124 48 250 100 281 115 31 15 111 73
178 129 406 333 789 510 1282 590 350 56 549 51 1338 -33z"/>
<path d="M9087 6053 c-9 -14 -136 -527 -132 -531 4 -4 827 36 830 40 24 34
245 412 242 415 -2 2 -150 19 -328 38 -355 38 -602 54 -612 38z"/>
<path d="M8755 6034 c-392 -53 -716 -172 -1030 -378 -121 -80 -265 -191 -265
-205 0 -5 26 -7 58 -5 31 3 331 18 667 35 335 16 612 33 616 37 7 8 129 495
129 517 0 18 -35 18 -175 -1z"/>
<path d="M10168 5924 c-14 -22 -84 -139 -157 -261 -72 -122 -139 -227 -149
-232 -9 -5 -224 -19 -477 -31 -253 -12 -463 -25 -467 -29 -8 -7 -148 -562
-148 -586 0 -13 31 -15 240 -15 l240 0 0 -70 0 -70 -262 -2 -262 -3 -11 -45
c-6 -25 -15 -57 -18 -72 l-7 -28 389 0 390 0 11 43 c60 232 252 386 482 387
94 0 162 -16 243 -58 91 -48 162 -120 211 -215 l39 -77 83 83 83 82 -3 95 -3
95 -162 5 c-101 3 -166 9 -173 16 -13 13 -89 306 -90 345 0 54 19 59 218 59
118 0 182 4 182 10 0 6 -56 81 -125 167 -69 85 -128 166 -131 178 -4 15 11 55
45 123 28 56 51 106 51 111 0 9 -39 15 -167 27 l-71 6 -24 -38z m-418 -724 l0
-70 -215 0 -215 0 0 70 0 70 215 0 215 0 0 -70z"/>
<path d="M7953 5329 l-742 -38 -230 -90 c-142 -55 -246 -101 -270 -120 -74
-59 -131 -175 -131 -268 l0 -43 146 0 146 0 38 30 c285 225 715 86 803 -261
l14 -54 409 0 408 0 12 40 c6 22 15 55 18 73 l8 32 -386 0 -386 0 0 70 0 70
404 0 404 0 71 285 c39 157 71 292 71 300 0 11 -10 15 -32 14 -18 -1 -367 -19
-775 -40z m567 -129 l0 -70 -175 0 -175 0 0 70 0 70 175 0 175 0 0 -70z"/>
<path d="M10357 5203 c-3 -5 2 -39 11 -76 l16 -67 118 0 119 0 -3 73 -3 72
-127 3 c-69 1 -129 -1 -131 -5z"/>
<path d="M7121 4756 c-70 -23 -147 -82 -190 -147 -122 -183 -52 -434 147 -527
49 -23 70 -27 152 -27 77 0 104 4 143 22 66 31 152 115 184 182 25 49 28 68
28 151 0 83 -3 102 -28 151 -33 68 -118 151 -184 181 -62 27 -190 34 -252 14z"/>
<path d="M9863 4756 c-60 -20 -104 -49 -157 -106 -73 -77 -91 -126 -91 -240 0
-84 3 -102 28 -152 36 -74 101 -139 175 -175 50 -25 68 -28 152 -28 84 0 102
3 152 28 71 35 140 104 176 176 24 49 27 68 27 151 0 116 -19 163 -96 245 -73
77 -140 108 -243 112 -50 2 -97 -2 -123 -11z"/>
<path d="M6580 4555 l0 -75 75 0 c73 0 75 0 81 28 3 15 12 47 20 71 8 25 14
46 14 48 0 2 -43 3 -95 3 l-95 0 0 -75z"/>
</g>
</svg>
