<?xml version="1.0" encoding="UTF-8" standalone="no" ?>
<!DOCTYPE svg PUBLIC "-//W3C//DTD SVG 1.1//EN" "http://www.w3.org/Graphics/SVG/1.1/DTD/svg11.dtd">
<svg xmlns="http://www.w3.org/2000/svg" xmlns:xlink="http://www.w3.org/1999/xlink" version="1.1" width="1280" height="1024" viewBox="0 0 1280 1024" xml:space="preserve">
<desc>Created with Fabric.js 3.6.3</desc>
<defs>
</defs>
<g transform="matrix(1.9692780337941629 0 0 1.9692780337941629 640.0153846153845 512.0123124187639)" id="background-logo"  >
<rect style="stroke: none; stroke-width: 1; stroke-dasharray: none; stroke-linecap: butt; stroke-dashoffset: 0; stroke-linejoin: miter; stroke-miterlimit: 4; fill: rgb(217,217,216); fill-rule: nonzero; opacity: 1;"  paint-order="stroke"  x="-325" y="-260" rx="0" ry="0" width="650" height="520" />
</g>
<g transform="matrix(1.9692780337941629 0 0 1.9692780337941629 640.0153846153846 363.9697442167205)" id="logo-logo"  >
<g style=""  paint-order="stroke"   >
		<g transform="matrix(0.19413034154016268 0 0 -0.1941303415401627 -86.53273951812076 -2.842171e-14)"  >
<path style="stroke: none; stroke-width: 1; stroke-dasharray: none; stroke-linecap: butt; stroke-dashoffset: 0; stroke-linejoin: miter; stroke-miterlimit: 4; fill: rgb(255,87,88); fill-rule: nonzero; opacity: 1;"  paint-order="stroke"  transform=" translate(-1218.4665, -1091.7920000000001)" d="m 774.703 1689.15 l 651.387 -96.89 l -108.88 -105.87 l 345.02 -114.71 l -381.98 -280.59 V 494.434 l -317.547 647.266 l -113.89 -110.74 l -74.11 658.19" stroke-linecap="round" />
</g>
		<g transform="matrix(0.19413034154016268 0 0 -0.1941303415401627 86.53147767090076 -2.842171e-14)"  >
<path style="stroke: none; stroke-width: 1; stroke-dasharray: none; stroke-linecap: butt; stroke-dashoffset: 0; stroke-linejoin: miter; stroke-miterlimit: 4; fill: rgb(255,87,88); fill-rule: nonzero; opacity: 1;"  paint-order="stroke"  transform=" translate(-2106.0000000000005, -1091.7920000000001)" d="m 2549.77 1689.15 l -651.39 -96.89 l 108.89 -105.87 l -345.04 -114.71 l 382 -280.59 V 494.434 l 317.54 647.266 l 113.89 -110.74 l 74.11 658.19" stroke-linecap="round" />
</g>
		<g transform="matrix(0.19413034154016268 0 0 -0.1941303415401627 0.5302409082581221 48.30933670000283)"  >
<path style="stroke: none; stroke-width: 1; stroke-dasharray: none; stroke-linecap: butt; stroke-dashoffset: 0; stroke-linejoin: miter; stroke-miterlimit: 4; fill: rgb(255,87,88); fill-rule: evenodd; opacity: 1;"  paint-order="stroke"  transform=" translate(-1662.24, -848.06)" d="m 1510.02 1000.28 h 128.11 V 872.164 H 1510.02 V 1000.28 Z M 1638.13 823.953 V 695.84 h -128.11 v 128.113 h 128.11 z m 48.21 176.327 h 128.12 V 872.164 H 1686.34 V 1000.28 Z M 1814.46 823.953 V 695.84 h -128.12 v 128.113 h 128.12" stroke-linecap="round" />
</g>
		<g transform="matrix(0.19413034154016268 0 0 -0.1941303415401627 29.728191661007145 -21.76574510659475)"  >
<path style="stroke: none; stroke-width: 1; stroke-dasharray: none; stroke-linecap: butt; stroke-dashoffset: 0; stroke-linejoin: miter; stroke-miterlimit: 4; fill: rgb(255,87,88); fill-rule: evenodd; opacity: 1;"  paint-order="stroke"  transform=" translate(-1812.915, -1201.7450000000001)" d="m 1662.23 1312.4 l 301.37 -221.31 l -301.37 110.66 z" stroke-linecap="round" />
</g>
		<g transform="matrix(0.19413034154016268 0 0 -0.1941303415401627 123.16163406980405 -7.43220564615433)"  >
<path style="stroke: none; stroke-width: 1; stroke-dasharray: none; stroke-linecap: butt; stroke-dashoffset: 0; stroke-linejoin: miter; stroke-miterlimit: 4; fill: rgb(255,87,88); fill-rule: nonzero; opacity: 1;"  paint-order="stroke"  transform=" translate(-2296.3900000000003, -1127.9615000000001)" d="m 2518.11 1635.11 l -64.63 -538.29 l -98.91 90.2 l -279.9 -566.207 v 470.977 l 443.44 543.32" stroke-linecap="round" />
</g>
		<g transform="matrix(0.19413034154016268 0 0 -0.1941303415401627 -121.57028042141957 -7.43220564615433)"  >
<path style="stroke: none; stroke-width: 1; stroke-dasharray: none; stroke-linecap: butt; stroke-dashoffset: 0; stroke-linejoin: miter; stroke-miterlimit: 4; fill: rgb(255,87,88); fill-rule: nonzero; opacity: 1;"  paint-order="stroke"  transform=" translate(-1032.8535, -1127.9615000000001)" d="m 811.137 1635.11 l 64.617 -538.29 l 98.91 90.2 l 279.906 -566.207 v 470.977 l -443.433 543.32" stroke-linecap="round" />
</g>
</g>
</g>
<g transform="matrix(1.9692780337941629 0 0 1.9692780337941629 340.6699093004928 686.0729683842918)" id="text-logo-path"  >
<path style="stroke: rgb(255,255,255); stroke-width: 0; stroke-dasharray: none; stroke-linecap: butt; stroke-dashoffset: 0; stroke-linejoin: miter; stroke-miterlimit: 4; fill: rgb(255,87,88); fill-rule: nonzero; opacity: 1;"  paint-order="stroke"  transform=" translate(-126.99, 32.39)" d="M 19.37 0 L 6.35 0 L 6.35 -64.61 L 19.37 -64.61 L 19.37 -47.59 L 46.39 -64.61 L 70.96 -64.61 L 36.48 -43.06 L 71.05 0 L 54.43 0 L 25.46 -36.21 L 19.37 -32.3 L 19.37 0 Z M 94.69 0 L 81.85 0 L 81.85 -64.78 L 94.69 -64.78 L 94.69 0 Z M 120.33 0 L 107.22 0 L 107.22 -64.78 L 152.54 -64.78 Q 156.63 -64.25 160.23 -62.34 Q 163.83 -60.43 166.43 -57.47 Q 169.03 -54.52 170.54 -50.88 Q 172.05 -47.23 172.05 -43.32 L 172.05 -43.32 L 172.05 -42.39 L 172.05 -41.5 Q 172.05 -38.88 171.31 -36.19 Q 170.58 -33.5 169.2 -31.08 Q 167.83 -28.66 165.96 -26.66 Q 164.09 -24.66 161.92 -23.28 L 161.92 -23.28 L 172.31 0 L 158.01 0 L 149.39 -19.64 L 120.33 -19.64 L 120.33 0 Z M 120.33 -52.25 L 120.33 -32.75 L 149.39 -32.75 Q 151.39 -32.75 153.16 -33.48 Q 154.94 -34.21 156.3 -35.52 Q 157.65 -36.84 158.43 -38.57 Q 159.21 -40.3 159.21 -42.39 L 159.21 -42.39 Q 159.21 -44.3 158.38 -46.08 Q 157.56 -47.85 156.18 -49.23 Q 154.81 -50.61 153.05 -51.43 Q 151.3 -52.25 149.39 -52.25 L 149.39 -52.25 L 120.33 -52.25 Z M 183.02 -22.57 L 183.02 -22.57 L 183.02 -42.03 Q 183.02 -46.66 184.8 -50.81 Q 186.58 -54.96 189.62 -58.01 Q 192.66 -61.05 196.8 -62.83 Q 200.93 -64.61 205.59 -64.61 L 205.59 -64.61 L 225.06 -64.61 Q 229.68 -64.61 233.83 -62.83 Q 237.99 -61.05 241.03 -58.01 Q 244.07 -54.96 245.85 -50.83 Q 247.63 -46.7 247.63 -42.03 L 247.63 -42.03 L 247.63 -22.57 Q 247.63 -17.95 245.85 -13.8 Q 244.07 -9.64 241.03 -6.6 Q 237.99 -3.55 233.85 -1.78 Q 229.72 0 225.06 0 L 225.06 0 L 205.59 0 Q 200.97 0 196.82 -1.78 Q 192.66 -3.55 189.62 -6.6 Q 186.58 -9.64 184.8 -13.77 Q 183.02 -17.91 183.02 -22.57 Z M 195.77 -42.03 L 195.77 -22.57 Q 195.77 -20.57 196.53 -18.84 Q 197.29 -17.11 198.66 -15.8 Q 200.04 -14.49 201.82 -13.75 Q 203.59 -13.02 205.59 -13.02 L 205.59 -13.02 L 225.06 -13.02 Q 229.14 -13.02 231.88 -15.75 Q 234.61 -18.48 234.61 -22.57 L 234.61 -22.57 L 234.61 -42.03 Q 234.61 -44.03 233.88 -45.81 Q 233.14 -47.59 231.83 -48.97 Q 230.52 -50.34 228.79 -51.1 Q 227.06 -51.85 225.06 -51.85 L 225.06 -51.85 L 205.59 -51.85 Q 203.51 -51.85 201.82 -51.05 Q 200.13 -50.25 198.75 -48.88 L 198.75 -48.88 Q 197.37 -47.5 196.57 -45.81 Q 195.77 -44.12 195.77 -42.03 L 195.77 -42.03 Z" stroke-linecap="round" />
</g>
<g transform="matrix(1.9692780337941629 0 0 1.9692780337941629 649.4799238457394 686.4389783996528)" id="tagline-84f4330b-c7be-4c66-88b1-58a94709d86c-logo-path"  >
<path style="stroke: rgb(255,255,255); stroke-width: 0; stroke-dasharray: none; stroke-linecap: butt; stroke-dashoffset: 0; stroke-linejoin: miter; stroke-miterlimit: 4; fill: rgb(66,163,24); fill-rule: nonzero; opacity: 1;"  paint-order="stroke"  transform=" translate(-37.355000000000004, 31.95)" d="M 5.41 -22.32 L 5.41 -22.32 L 5.41 -41.57 Q 5.41 -46.14 7.16 -50.25 Q 8.92 -54.36 11.93 -57.37 Q 14.94 -60.38 19.03 -62.14 Q 23.12 -63.9 27.73 -63.9 L 27.73 -63.9 L 46.98 -63.9 Q 51.55 -63.9 55.66 -62.14 Q 59.77 -60.38 62.78 -57.37 Q 65.79 -54.36 67.54 -50.27 Q 69.3 -46.19 69.3 -41.57 L 69.3 -41.57 L 69.3 -22.32 Q 69.3 -17.75 67.54 -13.65 Q 65.79 -9.54 62.78 -6.53 Q 59.77 -3.52 55.68 -1.76 Q 51.59 0 46.98 0 L 46.98 0 L 27.73 0 Q 23.16 0 19.05 -1.76 Q 14.94 -3.52 11.93 -6.53 Q 8.92 -9.54 7.16 -13.62 Q 5.41 -17.71 5.41 -22.32 Z M 18.02 -41.57 L 18.02 -22.32 Q 18.02 -20.35 18.76 -18.63 Q 19.51 -16.92 20.87 -15.62 Q 22.24 -14.33 23.99 -13.6 Q 25.75 -12.88 27.73 -12.88 L 27.73 -12.88 L 46.98 -12.88 Q 51.02 -12.88 53.72 -15.58 Q 56.43 -18.28 56.43 -22.32 L 56.43 -22.32 L 56.43 -41.57 Q 56.43 -43.55 55.7 -45.31 Q 54.98 -47.07 53.68 -48.43 Q 52.38 -49.79 50.67 -50.54 Q 48.96 -51.28 46.98 -51.28 L 46.98 -51.28 L 27.73 -51.28 Q 25.66 -51.28 23.99 -50.49 Q 22.32 -49.7 20.96 -48.34 L 20.96 -48.34 Q 19.6 -46.98 18.81 -45.31 Q 18.02 -43.64 18.02 -41.57 L 18.02 -41.57 Z" stroke-linecap="round" />
</g>
<g transform="matrix(1.9692780337941629 0 0 1.9692780337941629 797.7580729560483 686.4389783996528)" id="tagline-0663c82a-a19a-4e6e-800b-99c4bfa819ca-logo-path"  >
<path style="stroke: rgb(255,255,255); stroke-width: 0; stroke-dasharray: none; stroke-linecap: butt; stroke-dashoffset: 0; stroke-linejoin: miter; stroke-miterlimit: 4; fill: rgb(7,6,6); fill-rule: nonzero; opacity: 1;"  paint-order="stroke"  transform=" translate(-38.34, 32.035)" d="M 70.4 0 L 6.28 0 L 6.28 -64.07 L 18.98 -64.07 L 18.98 -12.96 L 70.4 -12.96 L 70.4 0 Z" stroke-linecap="round" />
</g>
<g transform="matrix(1.9692780337941629 0 0 1.9692780337941629 945.2683441134027 686.4389783996528)" id="tagline-26061243-aa24-4ef6-94a2-f6ffb2929350-logo-path"  >
<path style="stroke: rgb(255,255,255); stroke-width: 0; stroke-dasharray: none; stroke-linecap: butt; stroke-dashoffset: 0; stroke-linejoin: miter; stroke-miterlimit: 4; fill: rgb(255,87,88); fill-rule: nonzero; opacity: 1;"  paint-order="stroke"  transform=" translate(-38.275, 31.99)" d="M 70.27 0 L 6.28 0 L 6.28 -51.37 L 6.28 -63.98 L 70.27 -63.98 L 70.27 -51.37 L 18.9 -51.37 L 18.9 -38.72 L 45.62 -38.72 L 45.62 -25.84 L 18.9 -25.84 L 18.9 -12.88 L 70.27 -12.88 L 70.27 0 Z" stroke-linecap="round" />
</g>
</svg>